<svg xmlns="http://www.w3.org/2000/svg" xmlns:xlink="http://www.w3.org/1999/xlink"><symbol id="icon-arrow-right" viewBox="0 0 44 16"><g fill="none">
<path d="M43.7071 8.70711C44.0976 8.31658 44.0976 7.68342 43.7071 7.29289L37.3431 0.928932C36.9526 0.538408 36.3195 0.538408 35.9289 0.928932C35.5384 1.31946 35.5384 1.95262 35.9289 2.34315L41.5858 8L35.9289 13.6569C35.5384 14.0474 35.5384 14.6805 35.9289 15.0711C36.3195 15.4616 36.9526 15.4616 37.3431 15.0711L43.7071 8.70711ZM0 9H43V7H0V9Z" fill="currentColor"/>
</g></symbol><symbol id="icon-chat" viewBox="0 0 24 24"><g fill="none">
<path fill-rule="evenodd" clip-rule="evenodd" d="M11 3H13C17.9706 3 22 7.02944 22 12C22 16.9706 17.9706 21 13 21H6C3.79086 21 2 19.2091 2 17V12C2 7.02944 6.02944 3 11 3ZM8 14.75C7.58579 14.75 7.25 14.4142 7.25 14C7.25 13.5858 7.58579 13.25 8 13.25H12C12.4142 13.25 12.75 13.5858 12.75 14C12.75 14.4142 12.4142 14.75 12 14.75H8ZM8 10.75C7.58579 10.75 7.25 10.4142 7.25 10C7.25 9.58579 7.58579 9.25 8 9.25H16C16.4142 9.25 16.75 9.58579 16.75 10C16.75 10.4142 16.4142 10.75 16 10.75H8Z" fill="#F28E06"/>
</g></symbol><symbol id="icon-chevron-down" viewBox="0 0 16 16"><g fill="none">
<path d="M11.9465 5.45312H7.79316L4.05317 5.45312C3.41317 5.45312 3.09317 6.22646 3.5465 6.67979L6.99983 10.1331C7.55317 10.6865 8.45317 10.6865 9.0065 10.1331L10.3198 8.81979L12.4598 6.67979C12.9065 6.22646 12.5865 5.45312 11.9465 5.45312Z" fill="currentColor"/>
</g></symbol><symbol id="icon-figure" viewBox="0 0 24 28"><g fill="none">
<path d="M9.92625 0H24L14.1952 28H0L9.92625 0Z" fill="#F28E06"/>
</g></symbol><symbol id="icon-phone" viewBox="0 0 24 24"><g fill="none">
<path d="M21 19V17.3541C21 16.5363 20.5021 15.8008 19.7428 15.4971L17.7086 14.6835C16.7429 14.2971 15.6422 14.7156 15.177 15.646L15 16C15 16 12.5 15.5 10.5 13.5C8.5 11.5 8 9 8 9L8.35402 8.82299C9.28438 8.35781 9.70285 7.25714 9.31654 6.29136L8.50289 4.25722C8.19916 3.4979 7.46374 3 6.64593 3H5C3.89543 3 3 3.89543 3 5C3 13.8366 10.1634 21 19 21C20.1046 21 21 20.1046 21 19Z" fill="#F28E06"/>
</g></symbol><symbol id="icon-pin" viewBox="0 0 24 24"><g fill="none">
<path fill-rule="evenodd" clip-rule="evenodd" d="M12 22C15.375 22 21 15.7981 21 10.8889C21 5.97969 16.9706 2 12 2C7.02944 2 3 5.97969 3 10.8889C3 15.7981 8.625 22 12 22ZM12 14C13.6569 14 15 12.6569 15 11C15 9.34315 13.6569 8 12 8C10.3431 8 9 9.34315 9 11C9 12.6569 10.3431 14 12 14Z" fill="#F28E06"/>
</g></symbol></svg>