<svg xmlns="http://www.w3.org/2000/svg" xmlns:xlink="http://www.w3.org/1999/xlink"><symbol id="icon-arrow-right" viewBox="0 0 44 16"><g fill="none"><path d="M43.7071 8.70711C44.0976 8.31658 44.0976 7.68342 43.7071 7.29289L37.3431 0.928932C36.9526 0.538408 36.3195 0.538408 35.9289 0.928932C35.5384 1.31946 35.5384 1.95262 35.9289 2.34315L41.5858 8L35.9289 13.6569C35.5384 14.0474 35.5384 14.6805 35.9289 15.0711C36.3195 15.4616 36.9526 15.4616 37.3431 15.0711L43.7071 8.70711ZM0 9H43V7H0V9Z" fill="currentColor"/></g></symbol><symbol id="icon-chevron-down" viewBox="0 0 16 16"><g fill="none"><path d="M11.9465 5.45312H7.79316L4.05317 5.45312C3.41317 5.45312 3.09317 6.22646 3.5465 6.67979L6.99983 10.1331C7.55317 10.6865 8.45317 10.6865 9.0065 10.1331L10.3198 8.81979L12.4598 6.67979C12.9065 6.22646 12.5865 5.45312 11.9465 5.45312Z" fill="currentColor"/></g></symbol><symbol id="icon-figure" viewBox="0 0 24 28"><g fill="none"><path d="M9.92625 0H24L14.1952 28H0L9.92625 0Z" fill="#F28E06"/></g></symbol></svg>